<svg xmlns="http://www.w3.org/2000/svg" width="200" height="200" viewBox="0 0 200 200">
  <rect width="200" height="200" fill="#f5f5f5" rx="12"/>
  <!-- QR border squares -->
  <rect x="20" y="20" width="50" height="50" fill="none" stroke="#333" stroke-width="4" rx="4"/>
  <rect x="28" y="28" width="34" height="34" fill="#333" rx="2"/>
  <rect x="130" y="20" width="50" height="50" fill="none" stroke="#333" stroke-width="4" rx="4"/>
  <rect x="138" y="28" width="34" height="34" fill="#333" rx="2"/>
  <rect x="20" y="130" width="50" height="50" fill="none" stroke="#333" stroke-width="4" rx="4"/>
  <rect x="28" y="138" width="34" height="34" fill="#333" rx="2"/>
  <!-- QR dots pattern (simplified) -->
  <rect x="85" y="20" width="8" height="8" fill="#333"/>
  <rect x="100" y="20" width="8" height="8" fill="#333"/>
  <rect x="85" y="35" width="8" height="8" fill="#333"/>
  <rect x="20" y="85" width="8" height="8" fill="#333"/>
  <rect x="20" y="100" width="8" height="8" fill="#333"/>
  <rect x="35" y="85" width="8" height="8" fill="#333"/>
  <rect x="85" y="85" width="8" height="8" fill="#333"/>
  <rect x="100" y="85" width="8" height="8" fill="#333"/>
  <rect x="115" y="85" width="8" height="8" fill="#333"/>
  <rect x="85" y="100" width="8" height="8" fill="#333"/>
  <rect x="115" y="100" width="8" height="8" fill="#333"/>
  <rect x="85" y="115" width="8" height="8" fill="#333"/>
  <rect x="100" y="115" width="8" height="8" fill="#333"/>
  <rect x="130" y="85" width="8" height="8" fill="#333"/>
  <rect x="145" y="85" width="8" height="8" fill="#333"/>
  <rect x="160" y="85" width="8" height="8" fill="#333"/>
  <rect x="130" y="100" width="8" height="8" fill="#333"/>
  <rect x="160" y="100" width="8" height="8" fill="#333"/>
  <rect x="145" y="115" width="8" height="8" fill="#333"/>
  <!-- WeChat label -->
  <text x="100" y="185" text-anchor="middle" font-family="sans-serif" font-size="11" fill="#07C160" font-weight="600">扫码添加微信</text>
</svg>
